<?xml version="1.0" encoding="UTF-8"?>
<svg xmlns="http://www.w3.org/2000/svg" viewBox="0 0 288 288">
  <defs>
    <style>
      .cls-1 {
        fill: #0f0d0d;
      }

      .cls-2 {
        fill: #f37421;
      }

      .cls-3 {
        fill: #61bcb6;
      }

      .cls-4 {
        fill: #9c7656;
      }

      .cls-5 {
        fill: #edebe4;
      }
    </style>
  </defs>
  <g id="Layer_5" data-name="Layer 5">
    <path class="cls-5" d="M274.36,140.74c-.84-32.82-14.24-63.57-37.76-86.66-23.71-23.27-55.02-36.08-88.16-36.08-69.48,0-126,56.52-126,126,0,21.89,5.69,43.34,16.5,62.28l-24.49,36.76c-1.72,2.58-1.25,6.05,1.1,8.08,1.16,1,2.59,1.5,4.02,1.5s2.96-.53,4.13-1.59l28.53-25.75c24.05,28.51,58.75,44.73,96.21,44.73,69.48,0,126-56.52,126-126,0-.08.2-2.27-.08-3.26Z"/>
  </g>
  <g id="new_bolt" data-name="new bolt">
    <path d="M103.52,128.47l-27.72,46.5c-.84,1.41.18,3.2,1.81,3.2.02,0,.04,0,.06,0l13.72-.38-60.06,55.3,33.08-48.76c.98-1.41-.05-3.32-1.73-3.32-.05,0-.1,0-.15,0l-14.12.91,55.09-53.45M46.66,180.09l-1.66,1.61c-1.13,1.1-.28,3.02,1.29,2.92l2.31-.15,13.22-.85-42.1,63.16,73.41-67.09,3.01-2.73c.72-.65.24-1.85-.73-1.83l-4.06.11-12.93.36,31.96-56.25-63.71,60.74Z"/>
    <path class="cls-2" d="M103.52,128.47l-27.72,46.5c-.84,1.41.18,3.2,1.81,3.2.02,0,.04,0,.06,0l13.72-.38-60.06,55.3,33.08-48.76c.98-1.41-.05-3.32-1.73-3.32-.05,0-.1,0-.15,0l-14.12.91,55.09-53.45"/>
  </g>
  <g id="Layer_4" data-name="Layer 4">
    <path class="cls-3" d="M188.91,57.51l.88,4.99h-10.12c.3-1.77.57-3.29,1.11-5.05l8.13.06Z"/>
    <path class="cls-3" d="M189.97,52.99c.58.7,1.23,1.11,1.47,1.98h-13.33c.97-1.53,2.11-3.09,3.35-4.21,2.08-.53,4.42-.03,6.56-.19l1.95,2.41Z"/>
    <path class="cls-3" d="M151.98,41.39c.53.44,1.04,1.74.76,2.78-2.08.46-4.43.11-6.56.17-.3-1.05-.1-1.9.43-2.65.98-1.38,3.86-1.58,5.37-.3Z"/>
    <path class="cls-3" d="M118.14,57.48c.36,1.71.86,2.95,1.03,5l-10.12-.06,1-4.93h8.1Z"/>
    <path class="cls-3" d="M116.68,50.57c1.03-.17,3.65,3.51,4.19,4.43l-13.54-.17c1.44-1.33,2.11-3.18,3.51-3.95,1.6-.88,3.99-.01,5.84-.31Z"/>
    <circle class="cls-3" cx="149.47" cy="69.05" r="1.33"/>
  </g>
  <g id="Layer_3" data-name="Layer 3">
    <g>
      <path class="cls-4" d="M172.55,75.29l-5.46,5.47-8.99,8.81c.06,1.77-.27,3.34.2,5.23l11.56-11.29,8.1-8.07c-1.84-.34-3.59-.21-5.4-.16ZM172.73,78.51c-1.48,1.85-3.82,3.79-5.55,5.63l-2.57,2.72c-.24.27-.66.34-.87.2-.21-.14-.38-.84-.06-1.15l8.71-8.3c.2-.19.51.66.33.9Z"/>
      <path class="cls-4" d="M178.91,69.69c-.47,0-.68-.24-.7-.44-.01-.2.13-.68.5-.7l5-.11,18.63-.13c.31-1.17.38-2.2-.06-3.38h-105.88c-.37,1.23-.24,2.25-.11,3.39l15.62.13,19.67.07c.36.01.37.67.21.81-.11.11-.38.34-.76.34l-34.71-.03c-.21,1.11-.24,2-.01,3.16l53.11.04h7.26l45.73-.04c.27-1.37.23-2.14-.03-3.15l-23.48.03ZM149.43,72.2c-1.78,0-3.24-1.45-3.24-3.24s1.45-3.22,3.24-3.22,3.22,1.44,3.22,3.22-1.44,3.24-3.22,3.24ZM160.12,69.13c-.16-.24-.14-.43.01-.63.41-.57,8.38-.33,8.81,0,1.81,1.43-8.7.84-8.82.63Z"/>
      <path class="cls-4" d="M150.87,62.52c.53-1.18-.29-4.45.53-4.49,1.48-.07.38,2.44.87,4.43,1.15.13,2.17.14,3.38-.01l.04-15.42c-1.13-.27-2.44-.41-3.62.06.01,1.61.19,6.73-.66,6.47-.17-.06-.46-.33-.46-.64l-.11-5.99c-1.2-.16-2.34-.34-3.34.13l-.04,11.03c0,.43-.16.71-.5.63-.2-.04-.41-.31-.43-.68l-.19-11.15c-1.08-.13-2.11-.23-3.16.14l.06,15.49h7.63Z"/>
      <path class="cls-4" d="M143.04,147.25h7.53c.46,0,.71-.24.97-.31-.58-2.15-.1-6.44-.06-8.87l.16-8.54c.01-.36.26-.61.46-.67.3-.11.5.26.5.66l-.04,17.42c1.05.01,2.1.01,3.15-.1l-.04-57.97v-2.99l-7.36-5.15c-.5,1.31-.03,5.86-.29,8.04-.07.56-.19.97-.38,1.13-.2.16-.76.09-.76-.34l-.09-9.86c-1.23-.84-2.3-1.64-3.66-2.2-.09,2.05,0,3.83,0,5.74v24.4s0,7.2,0,7.2l-.09,32.42ZM151.21,88.86h1.21l-.07,27.97h-1.21l.07-27.97ZM148.13,117.21l-.04,20.61c0,.56-.31.86-.48.91-.34.11-.76-.1-.74-.71l.09-20.43c0-.38.31-.6.46-.7.16-.1.73-.09.73.31ZM146.19,99.45c0-.27.29-.56.43-.61.21-.07.64.24.66.61.07,1.41.44,9.41-.37,9.74-.23.1-.77-.06-.76-.54l.04-9.19Z"/>
      <path class="cls-4" d="M151.86,221.29v5.64c0,.33-.33.29-.47.3-.29.03-.4-.26-.43-.66l-.34-5.27c-.34-.04-7.53.2-8.37.33l-.16,8.85-.21,14.91c-.07,4.45-.4,8.85-.09,13.29.06.76,2.64,1.05,2.77.3.51-3.08-.24-10.96.04-14.44.09-.23.81-.26,1.1-.03l.06,14.16c0,.51.77.64,1.2.68.68.06,9.54.33,9.54-.67l-.1-37.15-4.53-.24ZM146.08,237.01c0,.51-.26.77-.48.78-1.24.07-.53-3.93-.46-5.73.01-.5.07-.64.44-.66.37-.01.5.14.5.64v4.96ZM151.72,255.18c-.17.09-.58-.09-.61-.38-.24-2.69-.1-5.3-.2-8.07-.14-3.46-.47-6.77-.27-10.19.03-.36.3-.46.46-.5,1.08-.29.73,9.89.81,11.75l.33,6.61c.03.5-.33.71-.51.78Z"/>
      <path class="cls-4" d="M132.31,81.42l-6.04-6.02c-1.87.01-3.52-.11-5.45.14,1.68,1.9,3.36,3.41,5.1,5.12l8.57,8.47,6.02,5.83c.21-2.01.21-3.76,0-5.77-3.02-2.58-5.53-5.12-8.2-7.77ZM134.4,86.68c-1.57-1.21-5.29-4.8-6.43-6.36.21-.53.96-.29,1.31.06l5.62,5.53c.63.61.14,1.27-.5.77Z"/>
    </g>
  </g>
  <g id="Layer_2" data-name="Layer 2">
    <path class="cls-1" d="M148.44,24.16c-66.08,0-119.84,53.76-119.84,119.84,0,19.03,4.48,37.02,12.41,53.02l2.83-3.96c-6.51-13.82-10.37-29.13-10.89-45.27,3.75.58,7.43.38,11.15-.35,8.34-1.63,17.55-5.42,24.87-9.65l5.02-2.89c4.18-2.41,11.89-7.85,15.61-10.98.87-.74,1.91-1.25,2.69-2.08.58-.63,1.24-1.05,1.85-1.6l3.08-2.71,3.39-3.11c2.21-2.02,4.35-4.03,6.33-6.29l2.22-2.55,2.54-2.89,2.08-2.41,2.52-3.26,2.85-3.96,1.88-2.59c.68-.94,1.5-1.65,2.11-2.67.78-1.3,1.64-2.62,3.09-3.34l7.73,7.6,6.67,6.5-.07,20.5-.07,28.31c.97.37,1.77-.11,2.55-.11l.09-32.42v-7.2s0-11.28,0-11.28v-13.13c0-1.91-.09-3.69,0-5.74,1.37.56,2.44,1.35,3.66,2.2l.09,9.86c0,.43.56.5.76.34.2-.16.31-.57.38-1.13.26-2.18-.21-6.73.29-8.04l7.36,5.15v2.99l.04,57.97c.83-.09,1.63-.11,2.67-.38l-.16-38.42c-.01-3.29-.23-6.31-.01-9.54.04-.58,1.03-.96,1.4-1.3,1.04-1.43,2.34-2.39,3.56-3.61l9.41-9.22,6.74,9.24c.96,1.31,4.59,5.63,5.42,6.51l2.64,2.84c1.92,2.08,3.79,4.13,5.9,6.02l6.86,6.12,1.84,1.6,3.64,2.85c1.67,1.33,3.36,2.54,5.09,3.75l2.24,1.58c1.68,1.2,3.38,2.28,5.17,3.34l4.29,2.54,5.12,2.77c1.75.94,3.56,1.61,5.37,2.49,6.12,2.98,13.5,5.03,20.26,6.3,3.61.67,7.18.81,10.85.56,0,.38.01.76.01,1.14,0,60.04-46.02,109.52-104.64,115.05l-.04-20.47-.1-4.62-.09-11.77c-.29-.1-.46-.36-.46-.64-.73.13-1.53.03-2.28-.01l.1,37.15c0,1-8.85.73-9.54.67-.43-.04-1.2-.17-1.2-.68l-.06-14.16c-.29-.23-1.01-.2-1.1.03-.29,3.48.47,11.36-.04,14.44-.13.76-2.71.46-2.77-.3-.31-4.43.01-8.84.09-13.29l.21-14.91.16-8.85c-.76.11-1.6-.2-2.54.07-.61,8.42-.24,16.34-.5,24.92l-.35,12.56c-30.44-2.51-57.57-16.88-76.76-38.45l-.87-1-3.12,2.91c21.99,25.22,54.31,41.21,90.32,41.21,66.08,0,119.84-53.76,119.84-119.84S214.52,24.16,148.44,24.16ZM148.44,28.43c57.54,0,105.38,42.27,114.13,97.38-6.76-1.5-14.57-5.6-19.75-8.59-3.72-2.14-10.46-6.5-13.81-9.05l-5.64-4.3c-3.95-3.01-7.64-6.17-11.1-9.76l-5.72-5.92c-1.92-1.98-8.78-11.18-8.2-12.53.09-.2.38-.3.73-.3h4.43c.83-.01,1.61-.67,1.62-1.58l.03-9.89c.01-.7-.6-1.34-1.3-1.34l-11.5-.04c-.26-1.65-.87-3.11-.83-4.8.01-.71,2.28.23,3.12-.83.4-.51.58-1.43.06-2.05l-4.97-5.86c-.4-.47-.96-.77-1.58-.77l-6.51-.03c-1,0-1.7.37-2.3,1.11l-4.4,5.42c-.48.6-.57,1.38-.24,1.98.68,1.31,3.21.33,3.25,1.01.13,1.71-.57,3.15-.86,4.82l-11.49.03c-.67,0-1.14-.43-1.4-1.01l-3.11-7.06c-.9-2.05-1.57-3.93-2.49-5.8-.38-.77-.21-1.68-.3-2.49-.31-2.87-3.06-.93-2.98-2.47.16-2.95-1.85-5.09-4.72-5.59-1.94-.34-4.03.16-5.53,1.48-1.7,1.5-1.55,4.3-1.74,4.55-.16.23-.57.29-.98.26-1.04-.06-1.84.61-1.71,1.67.17,1.47-.48,2.55-.97,3.81-1.68,4.32-3.41,8.47-5.53,12.63h-12.27c-.53-1.72-.88-3.32-1.05-5.06,1.07-.13,2,.11,2.92-.29.53-.24.76-.9.76-1.31.01-.5-.31-1.03-.68-1.5l-4.18-5.03c-.51-.63-1.31-1.25-2.24-1.14-2.42.3-5.07-.5-7.33.29-.96.07-5.69,6.02-6.06,6.73-.3.58-.03,1.25.19,1.64.5.9,2.04.43,2.75.6.93.23-.34,3.75-.57,5.06l-11.22.03c-.84.01-1.54.51-1.54,1.43v9.49c0,3.09,4.19,1.31,6.94,2.08-1.7,4.92-4.33,9.17-7.47,13.26-6.96,9.05-14.4,15.84-23.41,22.78l-2.14,1.64c-1.67,1.28-3.29,2.34-5.06,3.52-8.05,5.43-18.94,11.5-28.87,14.27,6.49-57.62,55.51-102.55,114.83-102.55ZM178.11,54.96c.97-1.51,2.11-3.08,3.35-4.19,2.08-.53,4.42-.03,6.56-.19l1.95,2.41c.58.7,1.23,1.11,1.47,1.98h-13.33ZM189.8,62.5h-10.12c.3-1.77.57-3.29,1.11-5.05l8.13.06.88,4.99ZM161.89,62.17c-1.14.7-2.44.27-3.69.26v-8.44s3.69,8.18,3.69,8.18ZM151.4,58.03c-.81.04,0,3.31-.53,4.49h-7.63l-.06-15.49c1.05-.37,2.08-.27,3.16-.14l.19,11.15c.01.37.23.64.43.68.34.09.5-.2.5-.63l.04-11.03c1-.47,2.14-.29,3.34-.13l.11,5.99c0,.31.29.58.46.64.84.26.67-4.86.66-6.47,1.18-.47,2.49-.33,3.62-.06l-.04,15.42c-1.21.16-2.22.14-3.38.01-.48-2,.61-4.5-.87-4.43ZM146.61,41.69c.98-1.38,3.86-1.58,5.37-.3.53.44,1.04,1.74.76,2.78-2.08.46-4.43.11-6.56.17-.3-1.05-.1-1.9.43-2.65ZM140.66,62.42c-1.25.17-2.2.21-3.61-.03,1.14-2.74,2.08-5.26,3.48-7.84l.13,7.87ZM107.33,54.83c1.44-1.33,2.11-3.18,3.51-3.95,1.6-.88,3.99-.01,5.84-.31,1.03-.17,3.65,3.51,4.19,4.43l-13.54-.17ZM119.17,62.49l-10.12-.06,1-4.93h8.1c.36,1.7.86,2.94,1.03,4.99ZM121.16,86.44l-4.46,5.8c-3.49,4.53-6.77,8.99-10.72,13.2-2.68,2.88-5.33,5.56-8.21,8.2l-3.79,3.48c-6.39,5.86-13.31,10.9-20.77,15.34l-2.62,1.55c-4.32,2.58-8.68,4.93-13.39,6.76l-4.45,1.74c-4.89,1.9-13.69,3.99-19.87,2.72,0-.41-.02-.81-.02-1.22,0-3.5.17-6.95.47-10.37l5.5-1.75c6.94-2.22,19.37-9.15,25.46-13.44l2.81-1.97,6.47-4.85,4.12-3.35,2.92-2.57c3.52-3.09,8.34-8.17,11.43-11.76l1.9-2.21,3.14-4.36c2.04-2.85,3.62-5.77,5.06-8.97.38-.83,1.11-1.43,1.4-2.35.14-.46.68-.76,1.17-.76l12.39.03,6.97,6.96c-1.2,1.4-1.88,2.82-2.91,4.15ZM140.5,94.96l-6.02-5.83-8.57-8.47c-1.74-1.71-3.42-3.22-5.1-5.12,1.92-.26,3.58-.13,5.45-.14l6.04,6.02c2.67,2.65,5.17,5.19,8.2,7.77.21,2.01.21,3.76,0,5.77ZM129.86,75.52l10.75-.17v10.01c-.58.31-.84-.07-1.21-.44l-9.54-9.39ZM149.43,72.85l-53.11-.04c-.23-1.17-.2-2.05.01-3.16l34.71.03c.37,0,.64-.23.76-.34.16-.14.14-.8-.21-.81l-19.67-.07-15.62-.13c-.13-1.14-.26-2.17.11-3.39h105.88c.44,1.18.37,2.21.06,3.38l-18.63.13-5,.11c-.37.01-.51.5-.5.7.01.2.23.44.7.44l23.48-.03c.26,1.01.3,1.78.03,3.15l-45.73.04h-7.26ZM168,75.35c.53,0,.83.37.43.76l-10.32,10.04-.11-10.79h10.01ZM169.86,83.51l-11.56,11.29c-.47-1.9-.14-3.46-.2-5.23l8.99-8.81,5.46-5.47c1.81-.06,3.56-.19,5.4.16l-8.1,8.07ZM256.14,140.19c-11.67-1.23-24.42-6.74-34.5-12.74-18.19-10.82-34.81-26.09-46.4-43.86-.26-.4-.51-.68-.5-1.1,0-.47.38-.76.78-1.15l6.03-6.03h12.42c.74-.01,1.37.36,1.55,1.08.27,1.14,1.01,1.9,1.54,2.85,1.85,3.35,3.96,6.36,6.51,9.22l2.58,2.91c2.72,3.05,5.59,5.67,8.64,8.42,10.22,9.25,23.51,18.53,36.05,24.36,3.14,1.45,7.88,3.43,12.1,4.29.53,3.92.86,7.9.99,11.94-2.72.2-5.62.03-7.8-.19Z"/>
    <path class="cls-1" d="M163.7,85.91l8.71-8.3c.2-.19.51.66.33.9-1.48,1.85-3.82,3.79-5.55,5.63l-2.57,2.72c-.24.27-.66.34-.87.2s-.38-.84-.06-1.15Z"/>
    <path class="cls-1" d="M168.94,68.5c1.81,1.43-8.7.84-8.82.63-.16-.24-.14-.43.01-.63.41-.57,8.38-.33,8.81,0Z"/>
    <path class="cls-1" d="M152.59,129.51l-.04,17.42c-.3-.01-.73-.07-1.01,0-.58-2.15-.1-6.44-.06-8.87l.16-8.54c.01-.36.26-.61.46-.67.3-.11.5.26.5.66Z"/>
    <polygon class="cls-1" points="152.42 88.86 152.35 116.83 151.14 116.83 151.21 88.86 152.42 88.86"/>
    <path class="cls-1" d="M150.91,246.73c-.14-3.46-.47-6.77-.27-10.19.03-.36.3-.46.46-.5,1.08-.29.73,9.89.81,11.75l.33,6.61c.03.5-.33.71-.51.78-.17.09-.58-.09-.61-.38-.24-2.69-.1-5.3-.2-8.07Z"/>
    <path class="cls-1" d="M150.62,221.3c.41.07.83-.03,1.24-.01v5.64c0,.33-.33.29-.47.3-.29.03-.4-.26-.43-.66l-.34-5.27Z"/>
    <path class="cls-1" d="M149.43,65.74c1.78,0,3.22,1.44,3.22,3.22s-1.44,3.24-3.22,3.24-3.24-1.45-3.24-3.24,1.45-3.22,3.24-3.22ZM150.8,69.05c0-.73-.6-1.33-1.33-1.33s-1.33.6-1.33,1.33.6,1.33,1.33,1.33,1.33-.6,1.33-1.33Z"/>
    <path class="cls-1" d="M146.95,117.6c0-.38.31-.6.46-.7.16-.1.73-.09.73.31l-.04,20.61c0,.56-.31.86-.48.91-.34.11-.76-.1-.74-.71l.09-20.43Z"/>
    <path class="cls-1" d="M147.27,99.45c.07,1.41.44,9.41-.37,9.74-.23.1-.77-.06-.76-.54l.04-9.19c0-.27.29-.56.43-.61.21-.07.64.24.66.61Z"/>
    <path class="cls-1" d="M145.59,237.79c-1.24.07-.53-3.93-.46-5.73.01-.5.07-.64.44-.66s.5.14.5.64v4.96c0,.51-.26.77-.48.78Z"/>
    <path class="cls-1" d="M134.4,86.68c-1.57-1.21-5.29-4.8-6.43-6.36.21-.53.96-.29,1.31.06l5.62,5.53c.63.61.14,1.27-.5.77Z"/>
  </g>
  <g id="new_text" data-name="new text">
    <g>
      <path class="cls-1" d="M113.01,165.68v-5.6c0-.33-.27-.6-.6-.6h-4.08c-.33,0-.6.27-.6.6v5.6c0,.33-.27.6-.6.6h-1.76c-.33,0-.6-.27-.6-.6v-14.15c0-.33.27-.6.6-.6h1.76c.33,0,.6.27.6.6v5.02c0,.33.27.6.6.6h4.08c.33,0,.6-.27.6-.6v-5.02c0-.33.27-.6.6-.6h1.76c.33,0,.6.27.6.6v14.15c0,.33-.27.6-.6.6h-1.76c-.33,0-.6-.27-.6-.6Z"/>
      <path class="cls-1" d="M121.54,165.68v-14.15c0-.33.27-.6.6-.6h7.6c.33,0,.6.27.6.6v1.09c0,.33-.27.6-.6.6h-4.74c-.33,0-.6.27-.6.6v2.87c0,.33.27.6.6.6h4.36c.33,0,.6.27.6.6v.92c0,.33-.27.6-.6.6h-4.36c-.33,0-.6.27-.6.6v3.33c0,.33.27.6.6.6h4.99c.33,0,.6.27.6.6v1.12c0,.33-.27.6-.6.6h-7.85c-.33,0-.6-.27-.6-.6Z"/>
      <path class="cls-1" d="M147.71,166.28c-.33,0-.6-.27-.6-.6l.05-11.19h-.08l-3.41,9.86c-.08.25-.31.43-.58.43h-1.45c-.27,0-.5-.18-.58-.43l-3.34-9.86h-.07l.05,11.19c0,.33-.27.6-.6.6h-1.51c-.33,0-.6-.27-.6-.6v-14.15c0-.33.27-.6.6-.6h2.97c.27,0,.5.17.58.43l3.26,9.3h.1l3.19-9.3c.08-.26.31-.43.58-.43h3.16c.33,0,.6.27.6.6v14.15c0,.33-.27.6-.6.6h-1.71Z"/>
      <path class="cls-1" d="M154.66,165.68v-14.15c0-.33.27-.6.6-.6h1.79c.33,0,.6.27.6.6v14.15c0,.33-.27.6-.6.6h-1.79c-.33,0-.6-.27-.6-.6Z"/>
      <path class="cls-1" d="M171.32,166.28c-.23,0-.45-.14-.55-.35l-4.85-10.49h-.07l.05,10.24c0,.33-.27.61-.6.61h-1.49c-.33,0-.6-.27-.6-.6v-14.15c0-.33.27-.6.6-.6h2.43c.24,0,.45.14.55.35l4.8,10.55h.08l-.02-10.3c0-.33.27-.6.6-.6h1.39c.33,0,.6.27.6.6v14.15c0,.33-.27.6-.6.6h-2.3Z"/>
      <path class="cls-1" d="M187.78,166.26c-.74.23-1.63.35-2.66.35s-1.99-.19-2.82-.57c-.83-.38-1.53-.93-2.11-1.64-.57-.71-1.01-1.55-1.32-2.54-.31-.98-.46-2.07-.46-3.27s.15-2.25.45-3.23c.3-.98.73-1.83,1.3-2.55.57-.72,1.25-1.27,2.05-1.67.8-.4,1.7-.6,2.69-.6,1.05,0,1.95.16,2.72.49.57.24,1.06.56,1.47.94.24.22.24.61.01.84l-.89.95c-.22.23-.59.26-.83.04-.61-.56-1.38-.83-2.3-.83-.62,0-1.15.15-1.61.46-.46.3-.84.71-1.13,1.23-.3.51-.52,1.11-.67,1.79-.15.68-.22,1.4-.22,2.15s.07,1.51.22,2.2c.15.69.37,1.29.67,1.8.3.51.68.91,1.13,1.2.46.29,1,.43,1.63.43.4,0,.76-.04,1.08-.12.15-.04.29-.08.41-.13.23-.09.38-.31.38-.56v-2.99c0-.33-.27-.6-.6-.6h-.94c-.33,0-.6-.27-.6-.6v-1.05c0-.33.27-.6.6-.6h3.66c.33,0,.6.27.6.6v6.86c0,.2-.1.4-.27.5-.47.29-1.02.54-1.64.73Z"/>
      <path class="cls-1" d="M202.3,165.91l-2.43-5.81c-.09-.22-.31-.37-.56-.37h-.67c-.33,0-.6.27-.6.6v5.34c0,.33-.27.6-.6.6h-1.69c-.33,0-.6-.27-.6-.6v-14.15c0-.33.27-.6.6-.6h4.44c.73,0,1.4.08,2.02.25.62.17,1.14.43,1.58.79.44.36.79.82,1.04,1.37.25.55.37,1.21.37,1.97,0,.59-.09,1.12-.26,1.57-.17.46-.4.84-.66,1.16-.27.32-.56.57-.89.77-.13.08-.26.15-.4.21-.3.14-.43.49-.3.79l2.71,6.05c.09.2-.06.42-.28.42h-2.28c-.24,0-.46-.15-.56-.37ZM202.26,155.44c0-.46-.07-.85-.22-1.15-.15-.3-.35-.54-.59-.72-.24-.17-.51-.3-.81-.37-.3-.07-.6-.11-.9-.11h-1.09c-.33,0-.6.27-.6.6v3.52c0,.33.27.6.6.6h1.09c.73,0,1.33-.2,1.81-.6s.71-.99.71-1.79Z"/>
      <path class="cls-1" d="M218.05,165.84l-.63-2.36c-.07-.26-.31-.45-.58-.45h-3.72c-.27,0-.51.18-.58.44l-.65,2.37c-.07.26-.31.44-.58.44h-1.74c-.4,0-.69-.38-.58-.77l4.04-14.15c.07-.26.31-.44.58-.44h2.9c.27,0,.51.18.58.44l3.98,14.15c.11.38-.18.77-.58.77h-1.86c-.27,0-.51-.18-.58-.45ZM215.06,153.38h-.1l-1.73,6.86c-.1.38.19.75.58.75h2.35c.39,0,.68-.37.58-.75l-1.69-6.87Z"/>
      <path class="cls-1" d="M230.52,160.54v5.14c0,.33-.27.6-.6.6h-1.74c-.33,0-.6-.27-.6-.6v-5.14c0-.09-.02-.17-.06-.25l-3.96-8.5c-.19-.4.11-.86.55-.86h1.88c.25,0,.47.15.56.39l2.49,6.47.07-.04,2.54-6.43c.09-.23.31-.38.56-.38h1.81c.44,0,.73.46.54.86l-4,8.5c-.04.08-.06.17-.06.26Z"/>
      <path class="cls-1" d="M104.76,187.37v-14.15c0-.33.27-.6.6-.6h7.6c.33,0,.6.27.6.6v1.09c0,.33-.27.6-.6.6h-4.74c-.33,0-.6.27-.6.6v2.87c0,.33.27.6.6.6h4.36c.33,0,.6.27.6.6v.92c0,.33-.27.6-.6.6h-4.36c-.33,0-.6.27-.6.6v3.33c0,.33.27.6.6.6h4.99c.33,0,.6.27.6.6v1.12c0,.33-.27.6-.6.6h-7.85c-.33,0-.6-.27-.6-.6Z"/>
      <path class="cls-1" d="M119.07,187.37v-14.15c0-.33.27-.6.6-.6h1.81c.33,0,.6.27.6.6v11.74c0,.33.27.6.6.6h4.56c.33,0,.6.27.6.6v1.2c0,.33-.27.6-.6.6h-7.58c-.33,0-.6-.27-.6-.6Z"/>
      <path class="cls-1" d="M132.34,187.37v-14.15c0-.33.27-.6.6-.6h7.6c.33,0,.6.27.6.6v1.09c0,.33-.27.6-.6.6h-4.74c-.33,0-.6.27-.6.6v2.87c0,.33.27.6.6.6h4.36c.33,0,.6.27.6.6v.92c0,.33-.27.6-.6.6h-4.36c-.33,0-.6.27-.6.6v3.33c0,.33.27.6.6.6h4.99c.33,0,.6.27.6.6v1.12c0,.33-.27.6-.6.6h-7.85c-.33,0-.6-.27-.6-.6Z"/>
      <path class="cls-1" d="M154.52,187.79c-.72.38-1.63.56-2.73.56-1,0-1.9-.2-2.71-.61-.81-.4-1.49-.97-2.04-1.68-.56-.72-.99-1.56-1.3-2.55-.31-.98-.46-2.06-.46-3.23s.15-2.25.46-3.24c.31-.99.74-1.84,1.31-2.56.57-.72,1.25-1.27,2.06-1.67.81-.4,1.7-.6,2.68-.6s1.9.16,2.67.49c.57.24,1.07.57,1.48.97.23.22.23.6,0,.83l-.9.95c-.22.24-.6.26-.84.04-.62-.57-1.36-.85-2.25-.85-.6,0-1.12.15-1.57.44-.45.3-.82.7-1.12,1.2-.3.51-.52,1.1-.67,1.79-.15.69-.22,1.42-.22,2.2s.07,1.49.22,2.18c.15.69.37,1.28.67,1.79.3.51.68.91,1.13,1.2.46.3.99.44,1.61.44.58,0,1.08-.13,1.51-.39.25-.15.48-.33.68-.52.23-.22.61-.2.83.03l.88.9c.23.23.24.6.01.83-.4.41-.87.76-1.41,1.04Z"/>
      <path class="cls-1" d="M166.73,175.43v11.94c0,.33-.27.6-.6.6h-1.74c-.33,0-.6-.27-.6-.6v-11.94c0-.33-.27-.6-.6-.6h-2.11c-.33,0-.6-.27-.6-.6v-1.01c0-.33.27-.6.6-.6h8.37c.33,0,.6.27.6.6v1.01c0,.33-.27.6-.6.6h-2.11c-.33,0-.6.27-.6.6Z"/>
      <path class="cls-1" d="M182.69,187.6l-2.43-5.81c-.09-.22-.31-.37-.56-.37h-.67c-.33,0-.6.27-.6.6v5.34c0,.33-.27.6-.6.6h-1.69c-.33,0-.6-.27-.6-.6v-14.15c0-.33.27-.6.6-.6h4.44c.73,0,1.4.08,2.02.25.62.17,1.14.43,1.58.79.44.36.79.82,1.04,1.37.25.55.37,1.21.37,1.97,0,.59-.09,1.12-.26,1.57-.17.46-.4.84-.66,1.16-.27.32-.56.57-.89.77-.3.18-.59.3-.88.38-.04.01-.07.06-.05.1.27.6,1.98,4.41,2.75,6.14.18.4-.11.85-.55.85h-1.81c-.24,0-.46-.15-.56-.37ZM182.65,177.13c0-.46-.07-.85-.22-1.15-.15-.3-.35-.54-.59-.72-.24-.17-.51-.3-.81-.37-.3-.07-.6-.11-.9-.11h-1.09c-.33,0-.6.27-.6.6v3.52c0,.33.27.6.6.6h1.09c.73,0,1.33-.2,1.81-.6s.71-.99.71-1.79Z"/>
      <path class="cls-1" d="M190.57,187.37v-14.15c0-.33.27-.6.6-.6h1.79c.33,0,.6.27.6.6v14.15c0,.33-.27.6-.6.6h-1.79c-.33,0-.6-.27-.6-.6Z"/>
      <path class="cls-1" d="M207.56,187.79c-.72.38-1.63.56-2.73.56-1,0-1.9-.2-2.71-.61-.81-.4-1.49-.97-2.04-1.68-.56-.72-.99-1.56-1.3-2.55-.31-.98-.46-2.06-.46-3.23s.15-2.25.46-3.24c.31-.99.74-1.84,1.31-2.56.57-.72,1.25-1.27,2.06-1.67.81-.4,1.7-.6,2.68-.6s1.9.16,2.67.49c.57.24,1.07.57,1.48.97.23.22.23.6,0,.83l-.9.95c-.22.24-.6.26-.84.04-.62-.57-1.36-.85-2.25-.85-.6,0-1.12.15-1.57.44-.45.3-.82.7-1.12,1.2-.3.51-.52,1.1-.67,1.79-.15.69-.22,1.42-.22,2.2s.07,1.49.22,2.18c.15.69.37,1.28.67,1.79.3.51.68.91,1.13,1.2.46.3.99.44,1.61.44.58,0,1.08-.13,1.51-.39.25-.15.48-.33.68-.52.23-.22.61-.2.83.03l.88.9c.23.23.24.6.01.83-.4.41-.87.76-1.41,1.04Z"/>
      <path class="cls-1" d="M113.22,209.48c-.72.38-1.63.56-2.73.56-1,0-1.9-.2-2.71-.61-.81-.4-1.49-.97-2.04-1.68-.56-.72-.99-1.56-1.3-2.55-.31-.98-.46-2.06-.46-3.23s.15-2.25.46-3.24c.31-.99.74-1.84,1.31-2.56.57-.72,1.25-1.27,2.06-1.67.81-.4,1.7-.6,2.68-.6s1.9.16,2.67.49c.57.24,1.07.57,1.48.97.23.22.23.6,0,.83l-.9.95c-.22.24-.6.26-.84.04-.62-.57-1.36-.85-2.25-.85-.6,0-1.12.15-1.57.44-.45.3-.82.7-1.12,1.2-.3.51-.52,1.1-.67,1.79-.15.69-.22,1.42-.22,2.2s.07,1.49.22,2.18c.15.69.37,1.28.67,1.79.3.51.68.91,1.13,1.2.46.3.99.44,1.61.44.58,0,1.08-.13,1.51-.39.25-.15.48-.33.68-.52.23-.22.61-.2.83.03l.88.9c.23.23.24.6.01.83-.4.41-.87.76-1.41,1.04Z"/>
      <path class="cls-1" d="M131.27,201.96c0,1.21-.15,2.32-.44,3.31-.29.99-.71,1.84-1.26,2.55-.55.71-1.22,1.26-2.01,1.65-.79.39-1.68.59-2.66.59s-1.89-.2-2.67-.59c-.78-.39-1.45-.94-2-1.65-.55-.71-.97-1.56-1.26-2.55-.29-.99-.44-2.09-.44-3.31s.14-2.31.42-3.3c.28-.98.7-1.83,1.25-2.54.55-.71,1.22-1.25,2.01-1.64.79-.38,1.68-.57,2.68-.57s1.87.19,2.66.57c.79.38,1.46.93,2.01,1.64.55.71.97,1.55,1.26,2.54.29.98.44,2.08.44,3.3ZM128.18,201.96c0-.78-.07-1.51-.21-2.2-.14-.69-.35-1.28-.62-1.78-.27-.5-.62-.89-1.02-1.18-.41-.29-.88-.43-1.41-.43s-1.03.14-1.43.43c-.41.29-.75.68-1.02,1.18-.27.5-.48,1.09-.61,1.78-.13.69-.2,1.42-.2,2.2s.07,1.51.2,2.2c.13.69.34,1.28.61,1.79.27.51.62.9,1.02,1.19.41.29.89.43,1.43.43s1.03-.14,1.43-.43.75-.69,1.02-1.19c.27-.51.48-1.1.61-1.79.13-.69.2-1.42.2-2.2Z"/>
      <path class="cls-1" d="M147.48,209.65c-.33,0-.6-.27-.6-.6l.05-11.19h-.08l-3.41,9.86c-.08.25-.31.43-.58.43h-1.45c-.27,0-.5-.18-.58-.43l-3.34-9.86h-.07l.05,11.19c0,.33-.27.6-.6.6h-1.51c-.33,0-.6-.27-.6-.6v-14.15c0-.33.27-.6.6-.6h2.97c.27,0,.5.17.58.43l3.26,9.3h.1l3.19-9.3c.08-.26.31-.43.58-.43h3.16c.33,0,.6.27.6.6v14.15c0,.33-.27.6-.6.6h-1.71Z"/>
      <path class="cls-1" d="M164.81,198.83c0,.78-.14,1.46-.41,2.05-.27.59-.63,1.07-1.08,1.46s-.96.68-1.54.87c-.58.19-1.18.28-1.79.28h-1.49c-.33,0-.6.27-.6.6v4.95c0,.33-.27.6-.6.6h-1.74c-.33,0-.6-.27-.6-.6v-14.15c0-.33.27-.6.6-.6h4.27c.56,0,1.14.07,1.74.22.6.14,1.13.39,1.6.75.47.35.86.82,1.17,1.4.31.58.46,1.3.46,2.17ZM161.99,198.87c0-.82-.22-1.42-.67-1.79-.45-.37-1.02-.56-1.72-.56h-1.09c-.33,0-.6.27-.6.6v3.65c0,.33.27.6.6.6h1.09c.7,0,1.27-.21,1.72-.64.45-.42.67-1.05.67-1.87Z"/>
      <path class="cls-1" d="M175.08,209.21l-.63-2.36c-.07-.26-.31-.45-.58-.45h-3.72c-.27,0-.51.18-.58.44l-.65,2.37c-.07.26-.31.44-.58.44h-1.74c-.4,0-.69-.38-.58-.77l4.04-14.15c.07-.26.31-.44.58-.44h2.9c.27,0,.51.18.58.44l3.98,14.15c.11.38-.18.77-.58.77h-1.86c-.27,0-.51-.18-.58-.45ZM172.09,196.75h-.1l-1.73,6.86c-.1.38.19.75.58.75h2.35c.39,0,.68-.37.58-.75l-1.69-6.87Z"/>
      <path class="cls-1" d="M189.88,209.65c-.23,0-.45-.14-.55-.35l-4.85-10.49h-.07l.05,10.24c0,.33-.27.61-.6.61h-1.49c-.33,0-.6-.27-.6-.6v-14.15c0-.33.27-.6.6-.6h2.43c.24,0,.45.14.55.35l4.8,10.55h.08l-.02-10.3c0-.33.27-.6.6-.6h1.39c.33,0,.6.27.6.6v14.15c0,.33-.27.6-.6.6h-2.3Z"/>
      <path class="cls-1" d="M203.68,203.91v5.14c0,.33-.27.6-.6.6h-1.74c-.33,0-.6-.27-.6-.6v-5.14c0-.09-.02-.17-.06-.25l-3.96-8.5c-.19-.4.11-.86.55-.86h1.88c.25,0,.47.15.56.39l2.49,6.47.07-.04,2.54-6.43c.09-.23.31-.38.56-.38h1.81c.44,0,.73.46.54.86l-4,8.5c-.04.08-.06.17-.06.26Z"/>
    </g>
    <g>
      <path class="cls-1" d="M216.09,204.3v4.49h2.31c.23,0,.41.05.53.15.12.1.19.22.19.37s-.06.27-.18.37c-.12.09-.3.14-.54.14h-2.87c-.31,0-.54-.06-.67-.18-.14-.12-.21-.32-.21-.58v-4.75c0-.25.07-.44.2-.57.13-.13.3-.19.52-.19s.39.06.52.19c.13.13.2.31.2.57Z"/>
      <path class="cls-1" d="M223.2,204.3v4.49h2.31c.23,0,.41.05.53.15.12.1.19.22.19.37s-.06.27-.18.37c-.12.09-.3.14-.54.14h-2.87c-.31,0-.54-.06-.67-.18-.14-.12-.21-.32-.21-.58v-4.75c0-.25.07-.44.2-.57.13-.13.3-.19.52-.19s.39.06.52.19c.13.13.2.31.2.57Z"/>
      <path class="cls-1" d="M234.39,207.87c0,.2-.06.41-.17.64-.11.23-.29.45-.52.67-.24.22-.54.4-.91.54s-.8.21-1.3.21c-.37,0-.71-.03-1.02-.09-.31-.06-.58-.16-.83-.29-.25-.13-.48-.3-.69-.52-.19-.19-.35-.41-.48-.65-.13-.24-.23-.5-.3-.77-.07-.27-.1-.56-.1-.87,0-.5.08-.94.25-1.33s.4-.73.71-1.01c.31-.28.67-.49,1.09-.64.42-.15.86-.22,1.33-.22.57,0,1.09.1,1.53.3.45.2.79.45,1.03.74.24.29.36.57.36.83,0,.14-.06.27-.17.38-.12.11-.26.16-.42.16-.18,0-.32-.04-.41-.11-.09-.08-.19-.21-.31-.39-.19-.31-.41-.53-.66-.69s-.57-.23-.94-.23c-.59,0-1.06.2-1.41.58-.35.39-.52.94-.52,1.66,0,.48.08.88.23,1.2s.37.56.66.71c.28.16.62.24,1,.24.41,0,.76-.09,1.05-.27.29-.18.5-.44.65-.78.06-.16.14-.3.23-.4.09-.1.24-.15.44-.15.17,0,.32.05.44.16.12.1.18.23.18.39Z"/>
      <path class="cls-1" d="M238.38,209.8c-.23,0-.42-.06-.58-.19-.16-.13-.25-.3-.25-.53,0-.19.08-.36.23-.5.16-.14.35-.21.58-.21s.42.07.59.21c.16.14.24.3.24.5,0,.22-.08.4-.24.53-.16.13-.35.19-.57.19Z"/>
    </g>
  </g>
</svg>